<svg xmlns="http://www.w3.org/2000/svg" viewBox="0 0 1024 1024">
  <defs>
    <linearGradient id="background" x1="154" y1="104" x2="870" y2="936" gradientUnits="userSpaceOnUse">
      <stop offset="0" stop-color="#3a424e"/>
      <stop offset="0.46" stop-color="#202831"/>
      <stop offset="1" stop-color="#10161d"/>
    </linearGradient>
    <radialGradient id="teal-glow" cx="0" cy="0" r="1" gradientTransform="translate(320 226) rotate(51) scale(690 612)" gradientUnits="userSpaceOnUse">
      <stop offset="0" stop-color="#5fd6c3" stop-opacity="0.48"/>
      <stop offset="0.48" stop-color="#26b8a2" stop-opacity="0.14"/>
      <stop offset="1" stop-color="#26b8a2" stop-opacity="0"/>
    </radialGradient>
    <linearGradient id="diamond" x1="300" y1="282" x2="722" y2="742" gradientUnits="userSpaceOnUse">
      <stop offset="0" stop-color="#ff8367"/>
      <stop offset="0.54" stop-color="#f15d49"/>
      <stop offset="1" stop-color="#f2a33f"/>
    </linearGradient>
    <linearGradient id="branch" x1="372" y1="386" x2="656" y2="684" gradientUnits="userSpaceOnUse">
      <stop offset="0" stop-color="#ffffff"/>
      <stop offset="1" stop-color="#eaf2f4"/>
    </linearGradient>
    <linearGradient id="shades" x1="372" y1="384" x2="656" y2="482" gradientUnits="userSpaceOnUse">
      <stop offset="0" stop-color="#171d24"/>
      <stop offset="1" stop-color="#06090d"/>
    </linearGradient>
    <filter id="app-shadow" x="-10%" y="-8%" width="120%" height="124%" color-interpolation-filters="sRGB">
      <feDropShadow dx="0" dy="28" stdDeviation="28" flood-color="#000000" flood-opacity="0.32"/>
    </filter>
    <filter id="diamond-shadow" x="-25%" y="-25%" width="150%" height="150%" color-interpolation-filters="sRGB">
      <feDropShadow dx="0" dy="22" stdDeviation="20" flood-color="#000000" flood-opacity="0.34"/>
    </filter>
    <filter id="line-shadow" x="-20%" y="-20%" width="140%" height="140%" color-interpolation-filters="sRGB">
      <feDropShadow dx="0" dy="7" stdDeviation="5" flood-color="#652017" flood-opacity="0.32"/>
    </filter>
    <clipPath id="app-shape">
      <rect x="64" y="64" width="896" height="896" rx="212"/>
    </clipPath>
  </defs>

  <rect x="64" y="64" width="896" height="896" rx="212" fill="url(#background)" filter="url(#app-shadow)"/>
  <g clip-path="url(#app-shape)">
    <rect x="64" y="64" width="896" height="896" fill="url(#teal-glow)"/>
    <path d="M124 756C244 688 344 680 466 728C598 780 730 774 900 640" fill="none" stroke="#5fd6c3" stroke-width="18" stroke-linecap="round" opacity="0.12"/>
    <path d="M112 300C244 246 356 268 476 366C596 464 724 502 912 454" fill="none" stroke="#ffffff" stroke-width="14" stroke-linecap="round" opacity="0.06"/>
    <rect x="65" y="65" width="894" height="894" rx="211" fill="none" stroke="#ffffff" stroke-width="2" opacity="0.12"/>
    <rect x="86" y="86" width="852" height="852" rx="192" fill="none" stroke="#000000" stroke-width="10" opacity="0.2"/>
  </g>

  <g filter="url(#diamond-shadow)">
    <rect x="306" y="306" width="412" height="412" rx="86" fill="url(#diamond)" transform="rotate(45 512 512)"/>
    <rect x="306" y="306" width="412" height="412" rx="86" fill="none" stroke="#ffc37d" stroke-width="8" opacity="0.2" transform="rotate(45 512 512)"/>
  </g>

  <g filter="url(#line-shadow)">
    <path d="M410 438L512 540L636 664" fill="none" stroke="url(#branch)" stroke-width="52" stroke-linecap="round" stroke-linejoin="round"/>
    <path d="M512 540L614 438" fill="none" stroke="url(#branch)" stroke-width="52" stroke-linecap="round" stroke-linejoin="round"/>
    <circle cx="410" cy="438" r="57" fill="url(#branch)"/>
    <circle cx="614" cy="438" r="57" fill="url(#branch)"/>
    <circle cx="512" cy="540" r="57" fill="url(#branch)"/>
    <circle cx="636" cy="664" r="57" fill="url(#branch)"/>
    <circle cx="410" cy="438" r="24" fill="#f15d49" opacity="0.9"/>
    <circle cx="614" cy="438" r="24" fill="#f15d49" opacity="0.9"/>
    <circle cx="512" cy="540" r="25" fill="#f15d49" opacity="0.9"/>
    <circle cx="636" cy="664" r="25" fill="#f2a33f" opacity="0.92"/>
  </g>

  <g transform="rotate(-5 512 438)" filter="url(#line-shadow)">
    <path d="M336 392H474V424H502V392H688V442H660V474H564V442H460V474H364V442H336Z" fill="url(#shades)"/>
    <path d="M366 408H432V424H366Z" fill="#ffffff" opacity="0.16"/>
    <path d="M568 408H638V424H568Z" fill="#ffffff" opacity="0.14"/>
    <path d="M336 392H474V424H502V392H688" fill="none" stroke="#ffffff" stroke-width="5" stroke-linecap="square" opacity="0.13"/>
  </g>

  <g filter="url(#line-shadow)">
    <path d="M430 594C470 628 540 640 592 598" fill="none" stroke="#7b241d" stroke-width="28" stroke-linecap="round"/>
    <path d="M430 588C472 620 540 629 590 592" fill="none" stroke="#ffd6a7" stroke-width="10" stroke-linecap="round" opacity="0.88"/>
  </g>
</svg>
